<svg width="20" height="20" viewBox="0 0 20 20" fill="none" xmlns="http://www.w3.org/2000/svg">
<path fill-rule="evenodd" clip-rule="evenodd" d="M4.18173 10C4.18173 9.3649 4.28946 8.75601 4.48173 8.1849L1.11627 5.66846C0.460366 6.97246 0.0908203 8.44179 0.0908203 10C0.0908203 11.5569 0.459911 13.0253 1.11491 14.3285L4.47855 11.8071C4.28809 11.2387 4.18173 10.632 4.18173 10Z" fill="#FBBC05"/>
<path fill-rule="evenodd" clip-rule="evenodd" d="M10.0908 4.22217C11.4998 4.22217 12.7726 4.71106 13.7726 5.51106L16.6817 2.66661C14.9089 1.1555 12.6362 0.222168 10.0908 0.222168C6.13894 0.222168 2.74257 2.43506 1.11621 5.66839L4.48167 8.18484C5.25712 5.87995 7.46757 4.22217 10.0908 4.22217Z" fill="#EA4335"/>
<path fill-rule="evenodd" clip-rule="evenodd" d="M10.0908 15.7776C7.46757 15.7776 5.25712 14.1198 4.48167 11.8149L1.11621 14.3309C2.74257 17.5647 6.13894 19.7776 10.0908 19.7776C12.5298 19.7776 14.8585 18.9296 16.6062 17.3407L13.4117 14.9225C12.5103 15.4785 11.3753 15.7776 10.0908 15.7776Z" fill="#34A853"/>
<path fill-rule="evenodd" clip-rule="evenodd" d="M19.6363 9.99995C19.6363 9.42217 19.5454 8.79995 19.409 8.22217H10.0908V11.9999H15.4545C15.1863 13.2879 14.4563 14.2782 13.4117 14.9226L16.6063 17.3408C18.4422 15.6724 19.6363 13.1871 19.6363 9.99995Z" fill="#4285F4"/>
</svg>
